{"title":"The Bachelorette Australia - S02E04","uid":15961970,"size":1239852033,"categoryP":"video","categoryS":"tv_shows","magnet":"?xt=urn:btih:c0408cd2fcdfe462aee6cb62742567016798e290&amp;dn=The+Bachelorette+Australia+-+S02E04&amp;tr=udp%3A%2F%2Ftracker.leechers-paradise.org%3A6969&amp;tr=udp%3A%2F%2Fzer0day.ch%3A1337&amp;tr=udp%3A%2F%2Fopen.demonii.com%3A1337&amp;tr=udp%3A%2F%2Ftracker.coppersurfer.tk%3A6969&amp;tr=udp%3A%2F%2Fexodus.desync.com%3A6969","seeders":2,"leechers":5,"uploader":"Bullrout","files":1,"time":1475675394,"description":"The Bachelorette Australia - S02E04\r\n\r\nGeorgia is picked up by her chosen Bachelor in a kombi van as the pair head to the coast for a surfing lesson. Later, on the group date Georgia takes six men billy cart racing with a twist.\r\n\r\nComplete name                            : The Bachelorette Australia - S02E04.mkv\r\nFormat                                   : Matroska\r\nFormat version                           : Version 4 / Version 2\r\nFile size                                : 1.15 GiB\r\nDuration                                 : 50 min 15 s\r\nOverall bit rate mode                    : Variable\r\nOverall bit rate                         : 3 290 kb/s\r\nEncoded date                             : UTC 2016-10-05 08:24:59\r\nWriting application                      : mkvmerge v9.4.2 ('So High') 64bit\r\nWriting library                          : libebml v1.3.4 + libmatroska v1.4.5\r\n\r\nVideo\r\nID                                       : 2\r\nFormat                                   : AVC\r\nFormat/Info                              : Advanced Video Codec\r\nFormat profile                           :   \r\nFormat settings, CABAC                   : Yes\r\nFormat settings, ReFrames                : 3 frames\r\nCodec ID                                 : V_MPEG4/ISO/AVC\r\nDuration                                 : 50 min 15 s\r\nBit rate mode                            : Variable\r\nBit rate                                 : 2 904 kb/s\r\nMaximum bit rate                         : 3 000 kb/s\r\nWidth                                    : 1 280 pixels\r\nHeight                                   : 720 pixels\r\nDisplay aspect ratio                     : 16:9\r\nFrame rate mode                          : Constant\r\nFrame rate                               : 25.000 FPS\r\nStandard                                 : PAL\r\nColor space                              : YUV\r\nChroma subsampling                       : 4:2:0\r\nBit depth                                : 8 bits\r\nScan type                                : Progressive\r\nBits/(Pixel*Frame)                       : 0.126\r\nStream size                              : 1.02 GiB (88%)\r\nWriting library                          : x264 core 112\r\nDefault                                  : Yes\r\nForced                                   : No\r\nColor range                              : Limited\r\nColor primaries                          : BT.709\r\nTransfer characteristics                 : BT.709\r\nMatrix coefficients                      : BT.709\r\n\r\nAudio\r\nID                                       : 1\r\nFormat                                   : AC-3\r\nFormat/Info                              : Audio Coding 3\r\nMode extension                           : CM (complete main)\r\nFormat settings, Endianness              : Big\r\nCodec ID                                 : A_AC3\r\nDuration                                 : 50 min 15 s\r\nBit rate mode                            : Constant\r\nBit rate                                 : 384 kb/s\r\nChannel(s)                               : 6 channels\r\nChannel positions                        : Front: L C R, Side: L R, LFE\r\nSampling rate                            : 48.0 kHz\r\nFrame rate                               : 31.250 FPS (1536 spf)\r\nCompression mode                         : Lossy\r\nStream size                              : 138 MiB (12%)\r\nDefault                                  : Yes\r\nForced                                   : No","torrent":{"xt":"urn:btih:c0408cd2fcdfe462aee6cb62742567016798e290","amp;dn":"The+Bachelorette+Australia+-+S02E04","amp;tr":["udp%3A%2F%2Ftracker.leechers-paradise.org%3A6969","udp%3A%2F%2Fzer0day.ch%3A1337","udp%3A%2F%2Fopen.demonii.com%3A1337","udp%3A%2F%2Ftracker.coppersurfer.tk%3A6969","udp%3A%2F%2Fexodus.desync.com%3A6969"],"infoHash":"c0408cd2fcdfe462aee6cb62742567016798e290","infoHashBuffer":{"type":"Buffer","data":[192,64,140,210,252,223,228,98,174,230,203,98,116,37,103,1,103,152,226,144]},"announce":[],"urlList":[]}}